<svg xmlns="http://www.w3.org/2000/svg" xmlns:xlink="http://www.w3.org/1999/xlink" width="150" zoomAndPan="magnify" viewBox="0 0 112.5 38.999999" height="52" preserveAspectRatio="xMidYMid meet" version="1.0"><defs><g/><clipPath id="231ab4ac2f"><path d="M 0.730469 32.070312 L 9.449219 32.070312 L 9.449219 38.914062 L 0.730469 38.914062 Z M 0.730469 32.070312 " clip-rule="nonzero"/></clipPath><clipPath id="443f44ce0a"><path d="M 0.0273438 15.621094 L 47.972656 15.621094 L 47.972656 36.429688 L 0.0273438 36.429688 Z M 0.0273438 15.621094 " clip-rule="nonzero"/></clipPath><clipPath id="92721b03af"><path d="M 1.011719 32.070312 L 9.449219 32.070312 L 9.449219 38.914062 L 1.011719 38.914062 Z M 1.011719 32.070312 " clip-rule="nonzero"/></clipPath><clipPath id="e5b3e599ad"><path d="M 6 0.0859375 L 23 0.0859375 L 23 23 L 6 23 Z M 6 0.0859375 " clip-rule="nonzero"/></clipPath><clipPath id="a21a004b88"><path d="M 0 0.0859375 L 24 0.0859375 L 24 25 L 0 25 Z M 0 0.0859375 " clip-rule="nonzero"/></clipPath></defs><path fill="#f76990" d="M 47.496094 17.089844 C 47.492188 17.085938 47.492188 17.082031 47.492188 17.074219 L 47.496094 17.105469 C 47.496094 17.101562 47.496094 17.097656 47.496094 17.089844 " fill-opacity="1" fill-rule="nonzero"/><g clip-path="url(#231ab4ac2f)"><path fill="#e55582" d="M 9.355469 34.390625 L 9.214844 32.15625 L 5.550781 32.386719 C 3.222656 32.535156 1.347656 34.195312 0.828125 36.347656 C 1.527344 38.050781 3.25 39.199219 5.191406 39.078125 L 5.226562 39.074219 C 7.660156 38.921875 9.507812 36.824219 9.355469 34.390625 " fill-opacity="1" fill-rule="nonzero"/></g><path fill="#e55582" d="M 42.8125 12.964844 L 42.777344 12.964844 C 40.34375 13.117188 38.492188 15.214844 38.648438 17.648438 L 38.789062 19.886719 L 42.449219 19.652344 C 44.78125 19.507812 46.652344 17.847656 47.175781 15.691406 C 46.476562 13.988281 44.75 12.839844 42.8125 12.964844 " fill-opacity="1" fill-rule="nonzero"/><g clip-path="url(#443f44ce0a)"><path fill="#f76990" d="M 47.960938 24.511719 L 47.496094 17.105469 L 47.492188 17.074219 C 47.460938 16.585938 47.351562 16.121094 47.175781 15.691406 C 46.652344 17.847656 44.78125 19.507812 42.449219 19.652344 L 38.789062 19.886719 L 23.703125 20.835938 L 4.898438 22.019531 C 2.035156 22.199219 -0.140625 24.667969 0.0390625 27.53125 L 0.507812 34.949219 C 0.539062 35.441406 0.648438 35.914062 0.828125 36.347656 C 1.347656 34.195312 3.222656 32.535156 5.550781 32.386719 L 9.214844 32.15625 L 24.300781 31.207031 L 43.105469 30.023438 C 45.96875 29.84375 48.140625 27.375 47.960938 24.511719 " fill-opacity="1" fill-rule="nonzero"/></g><path fill="#d34477" d="M 45.480469 17.917969 C 45.132812 18.085938 44.515625 18.308594 43.832031 18.300781 C 42.25 18.289062 41.175781 16.933594 41.84375 15.554688 C 41.851562 15.539062 41.859375 15.523438 41.867188 15.507812 C 42.3125 14.601562 43.222656 13.957031 44.300781 13.886719 L 44.324219 13.886719 C 45.347656 13.820312 46.28125 14.292969 46.851562 15.0625 C 46.023438 13.714844 44.5 12.859375 42.8125 12.964844 L 42.777344 12.964844 C 40.34375 13.121094 38.492188 15.214844 38.648438 17.648438 L 38.789062 19.882812 L 42.449219 19.652344 C 44.503906 19.523438 46.203125 18.21875 46.933594 16.433594 C 46.613281 17.0625 46.117188 17.609375 45.480469 17.917969 " fill-opacity="1" fill-rule="nonzero"/><g clip-path="url(#92721b03af)"><path fill="#d34477" d="M 9.355469 34.390625 L 9.214844 32.15625 L 5.550781 32.386719 C 3.496094 32.519531 1.800781 33.824219 1.066406 35.605469 C 1.386719 34.976562 1.882812 34.433594 2.523438 34.125 C 2.871094 33.957031 3.488281 33.734375 4.171875 33.742188 C 5.75 33.753906 6.824219 35.109375 6.15625 36.488281 C 6.148438 36.503906 6.140625 36.519531 6.132812 36.535156 C 5.691406 37.441406 4.78125 38.085938 3.699219 38.152344 L 3.679688 38.15625 C 2.652344 38.21875 1.71875 37.746094 1.148438 36.980469 C 1.976562 38.328125 3.503906 39.183594 5.191406 39.078125 L 5.226562 39.074219 C 7.660156 38.921875 9.507812 36.824219 9.355469 34.390625 " fill-opacity="1" fill-rule="nonzero"/></g><path fill="#ffffff" d="M 6.386719 14.734375 C 6.867188 16.710938 7.5 22.296875 7.570312 22.785156 C 7.640625 23.269531 6.910156 23.957031 6.480469 24.050781 C 6.050781 24.144531 4.265625 24.691406 3.324219 24.328125 C 2.382812 23.960938 2.3125 21.089844 2.3125 21.089844 C 2.3125 21.089844 1.664062 16.25 1.53125 14.691406 C 1.394531 13.128906 2.550781 13.035156 3.136719 12.9375 L 5.113281 12.738281 C 5.113281 12.738281 5.992188 12.785156 6.125 13.570312 C 6.257812 14.359375 6.316406 14.445312 6.386719 14.734375 " fill-opacity="1" fill-rule="nonzero"/><g clip-path="url(#e5b3e599ad)"><path fill="#ffffff" d="M 12.152344 1.476562 L 12.121094 4.265625 C 12.121094 4.265625 11.5 6.652344 10.953125 7.09375 C 10.40625 7.53125 9.417969 9.105469 9.007812 11.070312 C 8.601562 13.035156 6.246094 13.773438 6.414062 14.929688 C 6.585938 16.085938 7.5 22.296875 7.5 22.296875 C 7.5 22.296875 9.949219 22.90625 11.414062 22.691406 C 12.882812 22.476562 17.386719 22.710938 19.175781 21.691406 C 20.964844 20.675781 21.164062 21.171875 21.839844 20.167969 C 22.515625 19.160156 21.765625 18.933594 21.964844 18.292969 C 22.164062 17.652344 22.210938 17.246094 22.523438 16.648438 C 22.835938 16.054688 22.53125 15.699219 22.183594 15.328125 C 21.832031 14.960938 21.945312 14.585938 22.167969 14.234375 C 22.390625 13.886719 22.804688 13.824219 22.492188 13.132812 C 22.179688 12.441406 21.316406 12.316406 21.742188 11.347656 C 22.171875 10.375 22.195312 9.675781 21.847656 9.179688 C 21.5 8.683594 20.53125 8.257812 19.320312 8.210938 C 18.207031 8.171875 17.292969 8.277344 16.792969 8.375 C 16.308594 8.46875 15.675781 8.949219 15.058594 8.753906 C 14.835938 8.6875 14.839844 8.125 14.878906 7.6875 C 14.917969 7.269531 15.566406 5.464844 15.601562 5.144531 C 15.636719 4.824219 15.804688 2.792969 15.371094 2.289062 C 14.9375 1.785156 14.234375 0.875 13.316406 0.503906 C 12.398438 0.132812 12.152344 1.476562 12.152344 1.476562 " fill-opacity="1" fill-rule="nonzero"/></g><g clip-path="url(#a21a004b88)"><path fill="#f76990" d="M 21.796875 17.027344 C 21.578125 17.273438 21.003906 17.921875 21.40625 18.628906 C 21.878906 19.457031 21.421875 19.84375 21.269531 19.972656 C 21.152344 20.070312 20.9375 20.195312 20.726562 20.316406 C 20.660156 20.355469 20.589844 20.394531 20.519531 20.433594 C 19.785156 20.867188 18.996094 21.191406 18.175781 21.402344 C 16.355469 21.863281 12.644531 22.527344 7.929688 21.910156 L 6.8125 14.386719 L 6.898438 14.375 L 6.929688 14.367188 C 7.9375 14.09375 8.273438 13.558594 8.695312 12.882812 C 8.75 12.792969 8.808594 12.699219 8.875 12.601562 C 9.125 12.214844 9.332031 11.792969 9.492188 11.351562 C 9.671875 10.863281 9.808594 10.40625 9.945312 9.960938 C 10.296875 8.800781 10.574219 7.878906 11.300781 7.277344 C 12.644531 6.167969 12.613281 4.410156 12.566406 2.1875 L 12.566406 2.140625 C 12.558594 1.617188 12.695312 1.3125 12.980469 1.234375 C 13.441406 1.101562 14.171875 1.472656 14.480469 1.992188 C 15.074219 3.007812 15.34375 3.675781 15.15625 4.519531 C 15.117188 4.710938 15.042969 4.976562 14.960938 5.289062 C 14.429688 7.304688 14.234375 8.355469 14.574219 8.898438 C 14.691406 9.082031 14.867188 9.207031 15.074219 9.246094 C 15.523438 9.335938 16.136719 9.214844 16.917969 9.058594 C 17.558594 8.933594 18.289062 8.789062 18.878906 8.789062 C 20.285156 8.796875 21.015625 9.042969 21.390625 9.644531 C 21.839844 10.359375 21.308594 11.09375 21.199219 11.234375 C 21.023438 11.453125 20.964844 11.757812 21.03125 12.070312 C 21.097656 12.378906 21.273438 12.628906 21.515625 12.753906 C 21.761719 12.882812 21.960938 13.183594 22 13.488281 C 22.035156 13.765625 21.9375 14.007812 21.707031 14.210938 C 21.429688 14.457031 21.34375 14.800781 21.464844 15.15625 C 21.539062 15.363281 21.664062 15.546875 21.8125 15.742188 C 21.902344 15.855469 22.304688 16.457031 21.796875 17.027344 Z M 6.117188 23.613281 L 4.246094 23.890625 C 3.714844 23.96875 3.21875 23.597656 3.140625 23.066406 L 1.890625 14.566406 C 1.8125 14.035156 2.179688 13.539062 2.710938 13.460938 L 4.582031 13.183594 C 5.113281 13.105469 5.609375 13.476562 5.691406 14.007812 L 6.941406 22.507812 C 7.019531 23.039062 6.648438 23.535156 6.117188 23.613281 Z M 22.582031 17.726562 C 23.34375 16.867188 23.167969 15.792969 22.65625 15.113281 C 22.621094 15.0625 22.550781 14.976562 22.503906 14.902344 C 22.925781 14.480469 23.113281 13.9375 23.042969 13.355469 C 22.964844 12.734375 22.582031 12.152344 22.058594 11.855469 C 22.058594 11.851562 22.058594 11.847656 22.054688 11.84375 C 22.582031 11.152344 22.90625 10.082031 22.28125 9.085938 C 21.542969 7.910156 20.148438 7.746094 18.882812 7.738281 C 18.1875 7.738281 17.402344 7.890625 16.710938 8.027344 C 16.261719 8.117188 15.761719 8.21875 15.457031 8.226562 C 15.449219 8.082031 15.464844 7.804688 15.5625 7.289062 C 15.667969 6.726562 15.839844 6.078125 15.976562 5.558594 C 16.0625 5.238281 16.136719 4.957031 16.183594 4.746094 C 16.441406 3.574219 16.085938 2.65625 15.382812 1.460938 C 15.125 1.023438 14.710938 0.648438 14.21875 0.410156 C 13.695312 0.15625 13.152344 0.0898438 12.695312 0.222656 C 12.332031 0.324219 11.488281 0.71875 11.515625 2.164062 L 11.519531 2.207031 C 11.558594 4.222656 11.585938 5.679688 10.632812 6.46875 C 9.660156 7.273438 9.308594 8.429688 8.9375 9.65625 C 8.808594 10.085938 8.671875 10.53125 8.507812 10.988281 C 8.371094 11.359375 8.199219 11.710938 7.988281 12.03125 C 7.921875 12.136719 7.863281 12.234375 7.804688 12.328125 C 7.429688 12.925781 7.269531 13.179688 6.683594 13.34375 L 6.589844 13.359375 C 6.238281 12.53125 5.359375 12.007812 4.429688 12.144531 L 2.558594 12.417969 C 1.453125 12.582031 0.6875 13.613281 0.851562 14.71875 L 2.101562 23.21875 C 2.261719 24.324219 3.292969 25.09375 4.402344 24.929688 L 6.269531 24.652344 C 7.164062 24.523438 7.835938 23.824219 7.976562 22.976562 C 11.183594 23.375 13.941406 23.207031 15.972656 22.90625 C 16.984375 22.757812 17.816406 22.578125 18.433594 22.421875 C 19.351562 22.1875 20.234375 21.824219 21.054688 21.339844 C 21.121094 21.300781 21.1875 21.261719 21.25 21.226562 C 21.511719 21.074219 21.757812 20.933594 21.945312 20.773438 C 22.746094 20.101562 22.886719 19.105469 22.320312 18.109375 C 22.328125 18.082031 22.363281 17.972656 22.582031 17.726562 " fill-opacity="1" fill-rule="nonzero"/></g><path fill="#ffffff" d="M 6.128906 27.089844 L 7.039062 27.03125 C 7.265625 27.019531 7.433594 26.957031 7.539062 26.855469 C 7.640625 26.753906 7.691406 26.613281 7.679688 26.433594 C 7.667969 26.246094 7.601562 26.113281 7.492188 26.03125 C 7.375 25.949219 7.203125 25.917969 6.964844 25.933594 L 6.058594 25.992188 Z M 7.007812 25.492188 C 7.347656 25.46875 7.625 25.527344 7.835938 25.671875 C 8.054688 25.828125 8.171875 26.0625 8.191406 26.382812 C 8.203125 26.5625 8.164062 26.71875 8.078125 26.863281 C 7.980469 27.019531 7.839844 27.128906 7.660156 27.1875 L 7.660156 27.195312 C 7.964844 27.242188 8.144531 27.429688 8.203125 27.757812 L 8.292969 28.292969 C 8.324219 28.5 8.402344 28.660156 8.523438 28.773438 L 7.964844 28.808594 C 7.878906 28.710938 7.824219 28.5625 7.792969 28.375 L 7.722656 27.960938 C 7.691406 27.773438 7.621094 27.644531 7.519531 27.566406 C 7.410156 27.488281 7.261719 27.457031 7.066406 27.46875 L 6.15625 27.527344 L 6.246094 28.917969 L 5.730469 28.949219 L 5.519531 25.585938 L 7.007812 25.492188 " fill-opacity="1" fill-rule="nonzero"/><path fill="#ffffff" d="M 11.199219 25.226562 L 11.226562 25.664062 L 9.324219 25.785156 L 9.386719 26.765625 L 11.175781 26.652344 L 11.203125 27.09375 L 9.414062 27.203125 L 9.480469 28.273438 L 11.464844 28.148438 L 11.492188 28.589844 L 8.992188 28.746094 L 8.78125 25.378906 L 11.199219 25.226562 " fill-opacity="1" fill-rule="nonzero"/><path fill="#ffffff" d="M 14.253906 25.277344 C 14.507812 25.457031 14.675781 25.722656 14.75 26.058594 L 14.25 26.089844 C 14.179688 25.867188 14.0625 25.703125 13.894531 25.605469 C 13.726562 25.507812 13.527344 25.46875 13.28125 25.484375 C 12.917969 25.507812 12.652344 25.644531 12.484375 25.90625 C 12.324219 26.144531 12.257812 26.460938 12.28125 26.851562 C 12.308594 27.257812 12.414062 27.566406 12.597656 27.777344 C 12.789062 28 13.078125 28.101562 13.453125 28.078125 C 13.699219 28.0625 13.902344 27.988281 14.054688 27.855469 C 14.214844 27.710938 14.320312 27.507812 14.371094 27.238281 L 14.871094 27.207031 C 14.820312 27.601562 14.664062 27.917969 14.398438 28.160156 C 14.152344 28.382812 13.847656 28.507812 13.488281 28.527344 C 12.933594 28.5625 12.507812 28.410156 12.207031 28.078125 C 11.945312 27.792969 11.800781 27.394531 11.769531 26.886719 C 11.738281 26.386719 11.835938 25.972656 12.070312 25.640625 C 12.328125 25.265625 12.722656 25.0625 13.261719 25.03125 C 13.652344 25.007812 13.984375 25.085938 14.253906 25.277344 " fill-opacity="1" fill-rule="nonzero"/><path fill="#ffffff" d="M 15.953125 25.679688 C 15.777344 25.921875 15.703125 26.238281 15.730469 26.636719 C 15.753906 27.027344 15.867188 27.332031 16.070312 27.550781 C 16.285156 27.773438 16.570312 27.878906 16.929688 27.859375 C 17.285156 27.835938 17.558594 27.699219 17.734375 27.457031 C 17.910156 27.21875 17.988281 26.894531 17.964844 26.496094 C 17.9375 26.089844 17.820312 25.78125 17.617188 25.5625 C 17.40625 25.335938 17.125 25.242188 16.765625 25.265625 C 16.40625 25.285156 16.136719 25.421875 15.953125 25.679688 Z M 17.980469 25.234375 C 18.28125 25.535156 18.449219 25.945312 18.484375 26.460938 C 18.515625 26.976562 18.398438 27.402344 18.136719 27.738281 C 17.859375 28.085938 17.464844 28.277344 16.957031 28.308594 C 16.441406 28.34375 16.027344 28.199219 15.714844 27.886719 C 15.410156 27.582031 15.246094 27.175781 15.214844 26.667969 C 15.183594 26.15625 15.292969 25.730469 15.554688 25.394531 C 15.828125 25.035156 16.222656 24.84375 16.738281 24.8125 C 17.246094 24.78125 17.660156 24.917969 17.980469 25.234375 " fill-opacity="1" fill-rule="nonzero"/><path fill="#ffffff" d="M 19.503906 24.703125 L 20.847656 27.328125 L 20.863281 27.324219 L 21.859375 24.554688 L 22.46875 24.515625 L 22.679688 27.882812 L 22.167969 27.914062 L 22.015625 25.511719 L 21.996094 25.511719 L 21.117188 27.980469 L 20.671875 28.011719 L 19.488281 25.671875 L 19.46875 25.671875 L 19.621094 28.074219 L 19.105469 28.109375 L 18.894531 24.742188 L 19.503906 24.703125 " fill-opacity="1" fill-rule="nonzero"/><path fill="#ffffff" d="M 23.738281 24.4375 L 25.082031 27.058594 L 25.09375 27.058594 L 26.09375 24.289062 L 26.703125 24.25 L 26.914062 27.617188 L 26.402344 27.648438 L 26.25 25.246094 L 26.230469 25.246094 L 25.347656 27.714844 L 24.90625 27.742188 L 23.722656 25.402344 L 23.703125 25.40625 L 23.855469 27.808594 L 23.339844 27.839844 L 23.128906 24.476562 L 23.738281 24.4375 " fill-opacity="1" fill-rule="nonzero"/><path fill="#ffffff" d="M 29.78125 24.054688 L 29.808594 24.496094 L 27.90625 24.613281 L 27.964844 25.59375 L 29.757812 25.484375 L 29.785156 25.921875 L 27.992188 26.035156 L 28.0625 27.105469 L 30.046875 26.980469 L 30.074219 27.417969 L 27.574219 27.574219 L 27.363281 24.207031 L 29.78125 24.054688 " fill-opacity="1" fill-rule="nonzero"/><path fill="#ffffff" d="M 30.902344 23.984375 L 32.78125 26.378906 L 32.800781 26.378906 L 32.644531 23.875 L 33.15625 23.84375 L 33.371094 27.210938 L 32.871094 27.242188 L 30.96875 24.820312 L 30.953125 24.820312 L 31.113281 27.351562 L 30.597656 27.382812 L 30.386719 24.019531 L 30.902344 23.984375 " fill-opacity="1" fill-rule="nonzero"/><path fill="#ffffff" d="M 34.519531 26.695312 L 35.128906 26.660156 C 35.554688 26.632812 35.863281 26.507812 36.046875 26.292969 C 36.230469 26.078125 36.308594 25.761719 36.28125 25.335938 C 36.253906 24.902344 36.136719 24.597656 35.933594 24.410156 C 35.722656 24.222656 35.40625 24.140625 34.980469 24.167969 L 34.363281 24.207031 Z M 35.046875 23.722656 C 35.589844 23.691406 36.011719 23.816406 36.3125 24.105469 C 36.59375 24.371094 36.753906 24.773438 36.785156 25.304688 C 36.820312 25.832031 36.707031 26.25 36.457031 26.5625 C 36.195312 26.882812 35.792969 27.058594 35.25 27.09375 L 34.035156 27.167969 L 33.820312 23.800781 L 35.046875 23.722656 " fill-opacity="1" fill-rule="nonzero"/><path fill="#ffffff" d="M 39.621094 23.4375 L 39.648438 23.875 L 37.746094 23.996094 L 37.804688 24.976562 L 39.597656 24.863281 L 39.625 25.300781 L 37.832031 25.414062 L 37.902344 26.484375 L 39.886719 26.359375 L 39.914062 26.796875 L 37.414062 26.957031 L 37.203125 23.589844 L 39.621094 23.4375 " fill-opacity="1" fill-rule="nonzero"/><path fill="#ffffff" d="M 40.921875 26.292969 L 41.53125 26.253906 C 41.957031 26.230469 42.265625 26.105469 42.449219 25.890625 C 42.632812 25.675781 42.710938 25.359375 42.683594 24.933594 C 42.65625 24.5 42.539062 24.195312 42.335938 24.007812 C 42.125 23.816406 41.808594 23.738281 41.382812 23.765625 L 40.765625 23.804688 Z M 41.449219 23.320312 C 41.992188 23.289062 42.414062 23.410156 42.714844 23.699219 C 42.996094 23.96875 43.15625 24.367188 43.1875 24.902344 C 43.222656 25.429688 43.109375 25.847656 42.859375 26.15625 C 42.597656 26.476562 42.195312 26.652344 41.652344 26.6875 L 40.4375 26.765625 L 40.226562 23.398438 L 41.449219 23.320312 " fill-opacity="1" fill-rule="nonzero"/><g fill="#d34477" fill-opacity="1"><g transform="translate(51.570753, 14.786293)"><g><path d="M 1.421875 0.0625 C 1.203125 0.0625 1.003906 0.03125 0.828125 -0.03125 C 0.648438 -0.09375 0.5 -0.175781 0.375 -0.28125 C 0.257812 -0.394531 0.171875 -0.519531 0.109375 -0.65625 L 0.375 -1 L 0.453125 -1 C 0.535156 -0.8125 0.660156 -0.664062 0.828125 -0.5625 C 0.992188 -0.457031 1.191406 -0.40625 1.421875 -0.40625 C 1.597656 -0.40625 1.742188 -0.429688 1.859375 -0.484375 C 1.972656 -0.546875 2.054688 -0.644531 2.109375 -0.78125 C 2.171875 -0.925781 2.203125 -1.113281 2.203125 -1.34375 L 2.203125 -4.28125 L 2.703125 -4.28125 L 2.703125 -1.34375 C 2.703125 -0.851562 2.59375 -0.492188 2.375 -0.265625 C 2.164062 -0.046875 1.847656 0.0625 1.421875 0.0625 Z M 1.421875 0.0625 "/></g></g><g transform="translate(54.890082, 14.786293)"><g><path d="M 1.859375 0.0625 C 1.546875 0.0625 1.273438 0 1.046875 -0.125 C 0.828125 -0.257812 0.65625 -0.453125 0.53125 -0.703125 C 0.414062 -0.953125 0.359375 -1.253906 0.359375 -1.609375 C 0.359375 -1.972656 0.414062 -2.28125 0.53125 -2.53125 C 0.65625 -2.78125 0.828125 -2.96875 1.046875 -3.09375 C 1.273438 -3.226562 1.546875 -3.296875 1.859375 -3.296875 C 2.160156 -3.296875 2.421875 -3.226562 2.640625 -3.09375 C 2.867188 -2.96875 3.046875 -2.78125 3.171875 -2.53125 C 3.296875 -2.28125 3.359375 -1.972656 3.359375 -1.609375 C 3.359375 -1.253906 3.296875 -0.953125 3.171875 -0.703125 C 3.046875 -0.453125 2.867188 -0.257812 2.640625 -0.125 C 2.421875 0 2.160156 0.0625 1.859375 0.0625 Z M 1.859375 -0.359375 C 2.179688 -0.359375 2.425781 -0.457031 2.59375 -0.65625 C 2.757812 -0.863281 2.84375 -1.179688 2.84375 -1.609375 C 2.84375 -2.035156 2.757812 -2.347656 2.59375 -2.546875 C 2.425781 -2.753906 2.179688 -2.859375 1.859375 -2.859375 C 1.535156 -2.859375 1.285156 -2.753906 1.109375 -2.546875 C 0.941406 -2.347656 0.859375 -2.035156 0.859375 -1.609375 C 0.859375 -1.179688 0.941406 -0.863281 1.109375 -0.65625 C 1.285156 -0.457031 1.535156 -0.359375 1.859375 -0.359375 Z M 1.859375 -0.359375 "/></g></g><g transform="translate(58.599059, 14.786293)"><g><path d="M 2.140625 0.0625 C 1.898438 0.0625 1.691406 0.015625 1.515625 -0.078125 C 1.335938 -0.171875 1.203125 -0.296875 1.109375 -0.453125 L 1.046875 -0.4375 L 1.046875 0 L 0.5625 0 L 0.5625 -4.53125 L 1.046875 -4.53125 L 1.046875 -2.75 L 1.109375 -2.734375 C 1.347656 -3.109375 1.703125 -3.296875 2.171875 -3.296875 C 2.441406 -3.296875 2.675781 -3.234375 2.875 -3.109375 C 3.070312 -2.984375 3.222656 -2.796875 3.328125 -2.546875 C 3.441406 -2.296875 3.5 -1.984375 3.5 -1.609375 C 3.5 -1.242188 3.441406 -0.9375 3.328125 -0.6875 C 3.210938 -0.4375 3.050781 -0.25 2.84375 -0.125 C 2.644531 0 2.410156 0.0625 2.140625 0.0625 Z M 2.03125 -0.359375 C 2.675781 -0.359375 3 -0.773438 3 -1.609375 C 3 -2.046875 2.914062 -2.363281 2.75 -2.5625 C 2.582031 -2.757812 2.34375 -2.859375 2.03125 -2.859375 C 1.726562 -2.859375 1.488281 -2.753906 1.3125 -2.546875 C 1.132812 -2.347656 1.046875 -2.035156 1.046875 -1.609375 C 1.046875 -1.191406 1.132812 -0.878906 1.3125 -0.671875 C 1.488281 -0.460938 1.726562 -0.359375 2.03125 -0.359375 Z M 2.03125 -0.359375 "/></g></g><g transform="translate(62.45452, 14.786293)"><g/></g><g transform="translate(63.92522, 14.786293)"><g><path d="M 0.640625 0 L 0.640625 -4.28125 L 2.203125 -4.28125 C 2.492188 -4.28125 2.734375 -4.234375 2.921875 -4.140625 C 3.117188 -4.046875 3.265625 -3.910156 3.359375 -3.734375 C 3.460938 -3.566406 3.515625 -3.363281 3.515625 -3.125 C 3.515625 -2.863281 3.445312 -2.644531 3.3125 -2.46875 C 3.175781 -2.289062 2.96875 -2.160156 2.6875 -2.078125 L 2.6875 -2.015625 C 2.832031 -1.960938 2.945312 -1.875 3.03125 -1.75 C 3.125 -1.632812 3.207031 -1.460938 3.28125 -1.234375 L 3.671875 0 L 3.15625 0 L 2.71875 -1.3125 C 2.675781 -1.46875 2.617188 -1.585938 2.546875 -1.671875 C 2.484375 -1.765625 2.398438 -1.828125 2.296875 -1.859375 C 2.191406 -1.898438 2.0625 -1.921875 1.90625 -1.921875 L 1.15625 -1.921875 L 1.15625 0 Z M 2.1875 -2.34375 C 2.457031 -2.34375 2.65625 -2.40625 2.78125 -2.53125 C 2.914062 -2.65625 2.984375 -2.847656 2.984375 -3.109375 C 2.984375 -3.359375 2.914062 -3.546875 2.78125 -3.671875 C 2.65625 -3.796875 2.457031 -3.859375 2.1875 -3.859375 L 1.15625 -3.859375 L 1.15625 -2.34375 Z M 2.1875 -2.34375 "/></g></g><g transform="translate(67.892009, 14.786293)"><g><path d="M 3.078125 -1.5 L 0.859375 -1.5 C 0.867188 -1.113281 0.960938 -0.828125 1.140625 -0.640625 C 1.316406 -0.453125 1.554688 -0.359375 1.859375 -0.359375 C 2.085938 -0.359375 2.269531 -0.398438 2.40625 -0.484375 C 2.550781 -0.566406 2.664062 -0.695312 2.75 -0.875 L 2.8125 -0.875 L 3.125 -0.6875 C 3.03125 -0.457031 2.878906 -0.273438 2.671875 -0.140625 C 2.460938 -0.00390625 2.191406 0.0625 1.859375 0.0625 C 1.546875 0.0625 1.273438 0 1.046875 -0.125 C 0.828125 -0.25 0.65625 -0.4375 0.53125 -0.6875 C 0.414062 -0.9375 0.359375 -1.242188 0.359375 -1.609375 C 0.359375 -1.984375 0.421875 -2.296875 0.546875 -2.546875 C 0.671875 -2.796875 0.84375 -2.984375 1.0625 -3.109375 C 1.289062 -3.234375 1.546875 -3.296875 1.828125 -3.296875 C 2.242188 -3.296875 2.566406 -3.175781 2.796875 -2.9375 C 3.035156 -2.707031 3.15625 -2.363281 3.15625 -1.90625 C 3.15625 -1.726562 3.148438 -1.609375 3.140625 -1.546875 Z M 2.6875 -1.90625 C 2.675781 -2.25 2.597656 -2.5 2.453125 -2.65625 C 2.304688 -2.8125 2.097656 -2.890625 1.828125 -2.890625 C 1.546875 -2.890625 1.320312 -2.8125 1.15625 -2.65625 C 1 -2.5 0.90625 -2.25 0.875 -1.90625 Z M 2.6875 -1.90625 "/></g></g><g transform="translate(71.337314, 14.786293)"><g><path d="M 1.859375 0.0625 C 1.566406 0.0625 1.304688 0 1.078125 -0.125 C 0.859375 -0.257812 0.679688 -0.453125 0.546875 -0.703125 C 0.421875 -0.960938 0.359375 -1.265625 0.359375 -1.609375 C 0.359375 -1.960938 0.421875 -2.265625 0.546875 -2.515625 C 0.679688 -2.773438 0.859375 -2.96875 1.078125 -3.09375 C 1.304688 -3.226562 1.566406 -3.296875 1.859375 -3.296875 C 2.203125 -3.296875 2.472656 -3.226562 2.671875 -3.09375 C 2.867188 -2.96875 3.015625 -2.796875 3.109375 -2.578125 L 2.78125 -2.34375 L 2.71875 -2.34375 C 2.632812 -2.519531 2.523438 -2.648438 2.390625 -2.734375 C 2.253906 -2.816406 2.078125 -2.859375 1.859375 -2.859375 C 1.660156 -2.859375 1.484375 -2.8125 1.328125 -2.71875 C 1.179688 -2.625 1.066406 -2.484375 0.984375 -2.296875 C 0.898438 -2.109375 0.859375 -1.878906 0.859375 -1.609375 C 0.859375 -1.335938 0.898438 -1.109375 0.984375 -0.921875 C 1.066406 -0.742188 1.179688 -0.601562 1.328125 -0.5 C 1.484375 -0.40625 1.660156 -0.359375 1.859375 -0.359375 C 2.078125 -0.359375 2.257812 -0.410156 2.40625 -0.515625 C 2.5625 -0.617188 2.679688 -0.78125 2.765625 -1 L 2.828125 -1 L 3.140625 -0.8125 C 3.054688 -0.539062 2.90625 -0.328125 2.6875 -0.171875 C 2.46875 -0.015625 2.191406 0.0625 1.859375 0.0625 Z M 1.859375 0.0625 "/></g></g><g transform="translate(74.668362, 14.786293)"><g><path d="M 1.859375 0.0625 C 1.546875 0.0625 1.273438 0 1.046875 -0.125 C 0.828125 -0.257812 0.65625 -0.453125 0.53125 -0.703125 C 0.414062 -0.953125 0.359375 -1.253906 0.359375 -1.609375 C 0.359375 -1.972656 0.414062 -2.28125 0.53125 -2.53125 C 0.65625 -2.78125 0.828125 -2.96875 1.046875 -3.09375 C 1.273438 -3.226562 1.546875 -3.296875 1.859375 -3.296875 C 2.160156 -3.296875 2.421875 -3.226562 2.640625 -3.09375 C 2.867188 -2.96875 3.046875 -2.78125 3.171875 -2.53125 C 3.296875 -2.28125 3.359375 -1.972656 3.359375 -1.609375 C 3.359375 -1.253906 3.296875 -0.953125 3.171875 -0.703125 C 3.046875 -0.453125 2.867188 -0.257812 2.640625 -0.125 C 2.421875 0 2.160156 0.0625 1.859375 0.0625 Z M 1.859375 -0.359375 C 2.179688 -0.359375 2.425781 -0.457031 2.59375 -0.65625 C 2.757812 -0.863281 2.84375 -1.179688 2.84375 -1.609375 C 2.84375 -2.035156 2.757812 -2.347656 2.59375 -2.546875 C 2.425781 -2.753906 2.179688 -2.859375 1.859375 -2.859375 C 1.535156 -2.859375 1.285156 -2.753906 1.109375 -2.546875 C 0.941406 -2.347656 0.859375 -2.035156 0.859375 -1.609375 C 0.859375 -1.179688 0.941406 -0.863281 1.109375 -0.65625 C 1.285156 -0.457031 1.535156 -0.359375 1.859375 -0.359375 Z M 1.859375 -0.359375 "/></g></g><g transform="translate(78.377339, 14.786293)"><g><path d="M 0.5625 0 L 0.5625 -3.234375 L 1.015625 -3.234375 L 1.015625 -2.75 L 1.078125 -2.75 C 1.191406 -2.925781 1.320312 -3.0625 1.46875 -3.15625 C 1.625 -3.25 1.8125 -3.296875 2.03125 -3.296875 C 2.28125 -3.296875 2.472656 -3.25 2.609375 -3.15625 C 2.742188 -3.0625 2.851562 -2.90625 2.9375 -2.6875 L 3 -2.6875 C 3.101562 -2.882812 3.238281 -3.035156 3.40625 -3.140625 C 3.570312 -3.242188 3.773438 -3.296875 4.015625 -3.296875 C 4.335938 -3.296875 4.582031 -3.203125 4.75 -3.015625 C 4.914062 -2.835938 5 -2.566406 5 -2.203125 L 5 0 L 4.515625 0 L 4.515625 -2.1875 C 4.515625 -2.425781 4.460938 -2.597656 4.359375 -2.703125 C 4.265625 -2.816406 4.109375 -2.875 3.890625 -2.875 C 3.628906 -2.875 3.414062 -2.78125 3.25 -2.59375 C 3.09375 -2.40625 3.015625 -2.097656 3.015625 -1.671875 L 3.015625 0 L 2.546875 0 L 2.546875 -2.1875 C 2.546875 -2.425781 2.492188 -2.597656 2.390625 -2.703125 C 2.296875 -2.816406 2.140625 -2.875 1.921875 -2.875 C 1.660156 -2.875 1.445312 -2.78125 1.28125 -2.59375 C 1.125 -2.414062 1.046875 -2.125 1.046875 -1.71875 L 1.046875 0 Z M 0.5625 0 "/></g></g><g transform="translate(83.88514, 14.786293)"><g><path d="M 0.5625 0 L 0.5625 -3.234375 L 1.015625 -3.234375 L 1.015625 -2.75 L 1.078125 -2.75 C 1.191406 -2.925781 1.320312 -3.0625 1.46875 -3.15625 C 1.625 -3.25 1.8125 -3.296875 2.03125 -3.296875 C 2.28125 -3.296875 2.472656 -3.25 2.609375 -3.15625 C 2.742188 -3.0625 2.851562 -2.90625 2.9375 -2.6875 L 3 -2.6875 C 3.101562 -2.882812 3.238281 -3.035156 3.40625 -3.140625 C 3.570312 -3.242188 3.773438 -3.296875 4.015625 -3.296875 C 4.335938 -3.296875 4.582031 -3.203125 4.75 -3.015625 C 4.914062 -2.835938 5 -2.566406 5 -2.203125 L 5 0 L 4.515625 0 L 4.515625 -2.1875 C 4.515625 -2.425781 4.460938 -2.597656 4.359375 -2.703125 C 4.265625 -2.816406 4.109375 -2.875 3.890625 -2.875 C 3.628906 -2.875 3.414062 -2.78125 3.25 -2.59375 C 3.09375 -2.40625 3.015625 -2.097656 3.015625 -1.671875 L 3.015625 0 L 2.546875 0 L 2.546875 -2.1875 C 2.546875 -2.425781 2.492188 -2.597656 2.390625 -2.703125 C 2.296875 -2.816406 2.140625 -2.875 1.921875 -2.875 C 1.660156 -2.875 1.445312 -2.78125 1.28125 -2.59375 C 1.125 -2.414062 1.046875 -2.125 1.046875 -1.71875 L 1.046875 0 Z M 0.5625 0 "/></g></g><g transform="translate(89.392941, 14.786293)"><g><path d="M 3.078125 -1.5 L 0.859375 -1.5 C 0.867188 -1.113281 0.960938 -0.828125 1.140625 -0.640625 C 1.316406 -0.453125 1.554688 -0.359375 1.859375 -0.359375 C 2.085938 -0.359375 2.269531 -0.398438 2.40625 -0.484375 C 2.550781 -0.566406 2.664062 -0.695312 2.75 -0.875 L 2.8125 -0.875 L 3.125 -0.6875 C 3.03125 -0.457031 2.878906 -0.273438 2.671875 -0.140625 C 2.460938 -0.00390625 2.191406 0.0625 1.859375 0.0625 C 1.546875 0.0625 1.273438 0 1.046875 -0.125 C 0.828125 -0.25 0.65625 -0.4375 0.53125 -0.6875 C 0.414062 -0.9375 0.359375 -1.242188 0.359375 -1.609375 C 0.359375 -1.984375 0.421875 -2.296875 0.546875 -2.546875 C 0.671875 -2.796875 0.84375 -2.984375 1.0625 -3.109375 C 1.289062 -3.234375 1.546875 -3.296875 1.828125 -3.296875 C 2.242188 -3.296875 2.566406 -3.175781 2.796875 -2.9375 C 3.035156 -2.707031 3.15625 -2.363281 3.15625 -1.90625 C 3.15625 -1.726562 3.148438 -1.609375 3.140625 -1.546875 Z M 2.6875 -1.90625 C 2.675781 -2.25 2.597656 -2.5 2.453125 -2.65625 C 2.304688 -2.8125 2.097656 -2.890625 1.828125 -2.890625 C 1.546875 -2.890625 1.320312 -2.8125 1.15625 -2.65625 C 1 -2.5 0.90625 -2.25 0.875 -1.90625 Z M 2.6875 -1.90625 "/></g></g><g transform="translate(92.838247, 14.786293)"><g><path d="M 0.5625 0 L 0.5625 -3.234375 L 1.015625 -3.234375 L 1.015625 -2.71875 L 1.078125 -2.703125 C 1.179688 -2.898438 1.316406 -3.046875 1.484375 -3.140625 C 1.648438 -3.242188 1.851562 -3.296875 2.09375 -3.296875 C 2.488281 -3.296875 2.769531 -3.195312 2.9375 -3 C 3.113281 -2.800781 3.203125 -2.492188 3.203125 -2.078125 L 3.203125 0 L 2.734375 0 L 2.734375 -2.0625 C 2.734375 -2.257812 2.707031 -2.414062 2.65625 -2.53125 C 2.601562 -2.65625 2.523438 -2.742188 2.421875 -2.796875 C 2.316406 -2.847656 2.179688 -2.875 2.015625 -2.875 C 1.722656 -2.875 1.488281 -2.773438 1.3125 -2.578125 C 1.132812 -2.390625 1.046875 -2.082031 1.046875 -1.65625 L 1.046875 0 Z M 0.5625 0 "/></g></g><g transform="translate(96.558942, 14.786293)"><g><path d="M 1.671875 0.0625 C 1.410156 0.0625 1.179688 0 0.984375 -0.125 C 0.785156 -0.25 0.628906 -0.4375 0.515625 -0.6875 C 0.410156 -0.9375 0.359375 -1.242188 0.359375 -1.609375 C 0.359375 -1.984375 0.414062 -2.296875 0.53125 -2.546875 C 0.644531 -2.796875 0.804688 -2.984375 1.015625 -3.109375 C 1.222656 -3.234375 1.460938 -3.296875 1.734375 -3.296875 C 1.941406 -3.296875 2.128906 -3.253906 2.296875 -3.171875 C 2.472656 -3.085938 2.625 -2.953125 2.75 -2.765625 L 2.8125 -2.78125 L 2.8125 -4.53125 L 3.296875 -4.53125 L 3.296875 0 L 2.8125 0 L 2.8125 -0.46875 L 2.75 -0.484375 C 2.644531 -0.328125 2.5 -0.195312 2.3125 -0.09375 C 2.132812 0.0078125 1.921875 0.0625 1.671875 0.0625 Z M 1.828125 -0.359375 C 2.128906 -0.359375 2.367188 -0.460938 2.546875 -0.671875 C 2.722656 -0.878906 2.8125 -1.191406 2.8125 -1.609375 C 2.8125 -2.035156 2.722656 -2.347656 2.546875 -2.546875 C 2.367188 -2.753906 2.128906 -2.859375 1.828125 -2.859375 C 1.515625 -2.859375 1.273438 -2.757812 1.109375 -2.5625 C 0.941406 -2.363281 0.859375 -2.046875 0.859375 -1.609375 C 0.859375 -0.773438 1.179688 -0.359375 1.828125 -0.359375 Z M 1.828125 -0.359375 "/></g></g><g transform="translate(100.417333, 14.786293)"><g><path d="M 3.078125 -1.5 L 0.859375 -1.5 C 0.867188 -1.113281 0.960938 -0.828125 1.140625 -0.640625 C 1.316406 -0.453125 1.554688 -0.359375 1.859375 -0.359375 C 2.085938 -0.359375 2.269531 -0.398438 2.40625 -0.484375 C 2.550781 -0.566406 2.664062 -0.695312 2.75 -0.875 L 2.8125 -0.875 L 3.125 -0.6875 C 3.03125 -0.457031 2.878906 -0.273438 2.671875 -0.140625 C 2.460938 -0.00390625 2.191406 0.0625 1.859375 0.0625 C 1.546875 0.0625 1.273438 0 1.046875 -0.125 C 0.828125 -0.25 0.65625 -0.4375 0.53125 -0.6875 C 0.414062 -0.9375 0.359375 -1.242188 0.359375 -1.609375 C 0.359375 -1.984375 0.421875 -2.296875 0.546875 -2.546875 C 0.671875 -2.796875 0.84375 -2.984375 1.0625 -3.109375 C 1.289062 -3.234375 1.546875 -3.296875 1.828125 -3.296875 C 2.242188 -3.296875 2.566406 -3.175781 2.796875 -2.9375 C 3.035156 -2.707031 3.15625 -2.363281 3.15625 -1.90625 C 3.15625 -1.726562 3.148438 -1.609375 3.140625 -1.546875 Z M 2.6875 -1.90625 C 2.675781 -2.25 2.597656 -2.5 2.453125 -2.65625 C 2.304688 -2.8125 2.097656 -2.890625 1.828125 -2.890625 C 1.546875 -2.890625 1.320312 -2.8125 1.15625 -2.65625 C 1 -2.5 0.90625 -2.25 0.875 -1.90625 Z M 2.6875 -1.90625 "/></g></g><g transform="translate(103.862638, 14.786293)"><g><path d="M 1.671875 0.0625 C 1.410156 0.0625 1.179688 0 0.984375 -0.125 C 0.785156 -0.25 0.628906 -0.4375 0.515625 -0.6875 C 0.410156 -0.9375 0.359375 -1.242188 0.359375 -1.609375 C 0.359375 -1.984375 0.414062 -2.296875 0.53125 -2.546875 C 0.644531 -2.796875 0.804688 -2.984375 1.015625 -3.109375 C 1.222656 -3.234375 1.460938 -3.296875 1.734375 -3.296875 C 1.941406 -3.296875 2.128906 -3.253906 2.296875 -3.171875 C 2.472656 -3.085938 2.625 -2.953125 2.75 -2.765625 L 2.8125 -2.78125 L 2.8125 -4.53125 L 3.296875 -4.53125 L 3.296875 0 L 2.8125 0 L 2.8125 -0.46875 L 2.75 -0.484375 C 2.644531 -0.328125 2.5 -0.195312 2.3125 -0.09375 C 2.132812 0.0078125 1.921875 0.0625 1.671875 0.0625 Z M 1.828125 -0.359375 C 2.128906 -0.359375 2.367188 -0.460938 2.546875 -0.671875 C 2.722656 -0.878906 2.8125 -1.191406 2.8125 -1.609375 C 2.8125 -2.035156 2.722656 -2.347656 2.546875 -2.546875 C 2.367188 -2.753906 2.128906 -2.859375 1.828125 -2.859375 C 1.515625 -2.859375 1.273438 -2.757812 1.109375 -2.5625 C 0.941406 -2.363281 0.859375 -2.046875 0.859375 -1.609375 C 0.859375 -0.773438 1.179688 -0.359375 1.828125 -0.359375 Z M 1.828125 -0.359375 "/></g></g></g><g fill="#f76990" fill-opacity="1"><g transform="translate(54.583783, 24.986268)"><g><path d="M 3.171875 -4.28125 L 3.171875 -3.875 L 1.15625 -3.875 L 1.15625 -2.3125 L 2.96875 -2.3125 L 2.96875 -1.890625 L 1.15625 -1.890625 L 1.15625 0 L 0.640625 0 L 0.640625 -4.28125 Z M 3.171875 -4.28125 "/></g></g><g transform="translate(57.979283, 24.986268)"><g><path d="M 0.796875 -3.859375 C 0.703125 -3.859375 0.617188 -3.890625 0.546875 -3.953125 C 0.484375 -4.015625 0.453125 -4.09375 0.453125 -4.1875 C 0.453125 -4.289062 0.484375 -4.375 0.546875 -4.4375 C 0.617188 -4.5 0.703125 -4.53125 0.796875 -4.53125 C 0.898438 -4.53125 0.984375 -4.5 1.046875 -4.4375 C 1.109375 -4.375 1.140625 -4.289062 1.140625 -4.1875 C 1.140625 -4.09375 1.109375 -4.015625 1.046875 -3.953125 C 0.984375 -3.890625 0.898438 -3.859375 0.796875 -3.859375 Z M 1.046875 0 L 0.5625 0 L 0.5625 -3.234375 L 1.046875 -3.234375 Z M 1.046875 0 "/></g></g><g transform="translate(59.581818, 24.986268)"><g><path d="M 0.5625 0 L 0.5625 -3.234375 L 1.015625 -3.234375 L 1.015625 -2.71875 L 1.078125 -2.703125 C 1.179688 -2.898438 1.316406 -3.046875 1.484375 -3.140625 C 1.648438 -3.242188 1.851562 -3.296875 2.09375 -3.296875 C 2.488281 -3.296875 2.769531 -3.195312 2.9375 -3 C 3.113281 -2.800781 3.203125 -2.492188 3.203125 -2.078125 L 3.203125 0 L 2.734375 0 L 2.734375 -2.0625 C 2.734375 -2.257812 2.707031 -2.414062 2.65625 -2.53125 C 2.601562 -2.65625 2.523438 -2.742188 2.421875 -2.796875 C 2.316406 -2.847656 2.179688 -2.875 2.015625 -2.875 C 1.722656 -2.875 1.488281 -2.773438 1.3125 -2.578125 C 1.132812 -2.390625 1.046875 -2.082031 1.046875 -1.65625 L 1.046875 0 Z M 0.5625 0 "/></g></g><g transform="translate(63.302512, 24.986268)"><g><path d="M 1.671875 0.0625 C 1.410156 0.0625 1.179688 0 0.984375 -0.125 C 0.785156 -0.25 0.628906 -0.4375 0.515625 -0.6875 C 0.410156 -0.9375 0.359375 -1.242188 0.359375 -1.609375 C 0.359375 -1.984375 0.414062 -2.296875 0.53125 -2.546875 C 0.644531 -2.796875 0.804688 -2.984375 1.015625 -3.109375 C 1.222656 -3.234375 1.460938 -3.296875 1.734375 -3.296875 C 1.941406 -3.296875 2.128906 -3.253906 2.296875 -3.171875 C 2.472656 -3.085938 2.625 -2.953125 2.75 -2.765625 L 2.8125 -2.78125 L 2.8125 -4.53125 L 3.296875 -4.53125 L 3.296875 0 L 2.8125 0 L 2.8125 -0.46875 L 2.75 -0.484375 C 2.644531 -0.328125 2.5 -0.195312 2.3125 -0.09375 C 2.132812 0.0078125 1.921875 0.0625 1.671875 0.0625 Z M 1.828125 -0.359375 C 2.128906 -0.359375 2.367188 -0.460938 2.546875 -0.671875 C 2.722656 -0.878906 2.8125 -1.191406 2.8125 -1.609375 C 2.8125 -2.035156 2.722656 -2.347656 2.546875 -2.546875 C 2.367188 -2.753906 2.128906 -2.859375 1.828125 -2.859375 C 1.515625 -2.859375 1.273438 -2.757812 1.109375 -2.5625 C 0.941406 -2.363281 0.859375 -2.046875 0.859375 -1.609375 C 0.859375 -0.773438 1.179688 -0.359375 1.828125 -0.359375 Z M 1.828125 -0.359375 "/></g></g><g transform="translate(67.1609, 24.986268)"><g/></g><g transform="translate(68.6316, 24.986268)"><g><path d="M 1.328125 0.0625 C 1.015625 0.0625 0.765625 -0.0195312 0.578125 -0.1875 C 0.398438 -0.351562 0.3125 -0.59375 0.3125 -0.90625 C 0.3125 -1.09375 0.351562 -1.25 0.4375 -1.375 C 0.519531 -1.507812 0.644531 -1.617188 0.8125 -1.703125 C 0.976562 -1.785156 1.191406 -1.851562 1.453125 -1.90625 C 1.691406 -1.9375 1.867188 -1.976562 1.984375 -2.03125 C 2.109375 -2.082031 2.191406 -2.132812 2.234375 -2.1875 C 2.273438 -2.25 2.296875 -2.328125 2.296875 -2.421875 C 2.296875 -2.566406 2.242188 -2.675781 2.140625 -2.75 C 2.046875 -2.832031 1.890625 -2.875 1.671875 -2.875 C 1.453125 -2.875 1.269531 -2.832031 1.125 -2.75 C 0.976562 -2.675781 0.84375 -2.554688 0.71875 -2.390625 L 0.65625 -2.390625 L 0.421875 -2.71875 C 0.554688 -2.894531 0.726562 -3.035156 0.9375 -3.140625 C 1.15625 -3.242188 1.398438 -3.296875 1.671875 -3.296875 C 2.046875 -3.296875 2.320312 -3.210938 2.5 -3.046875 C 2.6875 -2.878906 2.78125 -2.644531 2.78125 -2.34375 L 2.78125 -0.640625 C 2.78125 -0.453125 2.851562 -0.359375 3 -0.359375 C 3.050781 -0.359375 3.101562 -0.367188 3.15625 -0.390625 L 3.1875 -0.375 L 3.25 -0.046875 C 3.21875 -0.0234375 3.171875 -0.0078125 3.109375 0 C 3.054688 0.0195312 3 0.03125 2.9375 0.03125 C 2.757812 0.03125 2.625 -0.0078125 2.53125 -0.09375 C 2.4375 -0.175781 2.378906 -0.289062 2.359375 -0.4375 L 2.296875 -0.453125 C 2.203125 -0.273438 2.078125 -0.144531 1.921875 -0.0625 C 1.765625 0.0195312 1.566406 0.0625 1.328125 0.0625 Z M 1.4375 -0.3125 C 1.613281 -0.3125 1.769531 -0.351562 1.90625 -0.4375 C 2.039062 -0.519531 2.140625 -0.632812 2.203125 -0.78125 C 2.273438 -0.9375 2.3125 -1.113281 2.3125 -1.3125 L 2.3125 -1.71875 L 2.265625 -1.734375 C 2.191406 -1.679688 2.101562 -1.640625 2 -1.609375 C 1.894531 -1.578125 1.75 -1.546875 1.5625 -1.515625 C 1.375 -1.492188 1.222656 -1.457031 1.109375 -1.40625 C 1.003906 -1.351562 0.925781 -1.285156 0.875 -1.203125 C 0.832031 -1.117188 0.8125 -1.019531 0.8125 -0.90625 C 0.8125 -0.707031 0.863281 -0.554688 0.96875 -0.453125 C 1.082031 -0.359375 1.238281 -0.3125 1.4375 -0.3125 Z M 1.4375 -0.3125 "/></g></g><g transform="translate(71.974365, 24.986268)"><g/></g><g transform="translate(73.445065, 24.986268)"><g><path d="M 0.796875 -3.859375 C 0.703125 -3.859375 0.617188 -3.890625 0.546875 -3.953125 C 0.484375 -4.015625 0.453125 -4.09375 0.453125 -4.1875 C 0.453125 -4.289062 0.484375 -4.375 0.546875 -4.4375 C 0.617188 -4.5 0.703125 -4.53125 0.796875 -4.53125 C 0.898438 -4.53125 0.984375 -4.5 1.046875 -4.4375 C 1.109375 -4.375 1.140625 -4.289062 1.140625 -4.1875 C 1.140625 -4.09375 1.109375 -4.015625 1.046875 -3.953125 C 0.984375 -3.890625 0.898438 -3.859375 0.796875 -3.859375 Z M 0.15625 1.375 C 0.0507812 1.375 -0.0351562 1.363281 -0.109375 1.34375 C -0.191406 1.332031 -0.269531 1.3125 -0.34375 1.28125 L -0.265625 0.921875 L -0.203125 0.90625 C -0.109375 0.9375 -0.0078125 0.953125 0.09375 0.953125 C 0.238281 0.953125 0.351562 0.898438 0.4375 0.796875 C 0.519531 0.703125 0.5625 0.5625 0.5625 0.375 L 0.5625 -3.234375 L 1.046875 -3.234375 L 1.046875 0.359375 C 1.046875 0.679688 0.96875 0.929688 0.8125 1.109375 C 0.65625 1.285156 0.4375 1.375 0.15625 1.375 Z M 0.15625 1.375 "/></g></g><g transform="translate(75.0476, 24.986268)"><g><path d="M 1.859375 0.0625 C 1.546875 0.0625 1.273438 0 1.046875 -0.125 C 0.828125 -0.257812 0.65625 -0.453125 0.53125 -0.703125 C 0.414062 -0.953125 0.359375 -1.253906 0.359375 -1.609375 C 0.359375 -1.972656 0.414062 -2.28125 0.53125 -2.53125 C 0.65625 -2.78125 0.828125 -2.96875 1.046875 -3.09375 C 1.273438 -3.226562 1.546875 -3.296875 1.859375 -3.296875 C 2.160156 -3.296875 2.421875 -3.226562 2.640625 -3.09375 C 2.867188 -2.96875 3.046875 -2.78125 3.171875 -2.53125 C 3.296875 -2.28125 3.359375 -1.972656 3.359375 -1.609375 C 3.359375 -1.253906 3.296875 -0.953125 3.171875 -0.703125 C 3.046875 -0.453125 2.867188 -0.257812 2.640625 -0.125 C 2.421875 0 2.160156 0.0625 1.859375 0.0625 Z M 1.859375 -0.359375 C 2.179688 -0.359375 2.425781 -0.457031 2.59375 -0.65625 C 2.757812 -0.863281 2.84375 -1.179688 2.84375 -1.609375 C 2.84375 -2.035156 2.757812 -2.347656 2.59375 -2.546875 C 2.425781 -2.753906 2.179688 -2.859375 1.859375 -2.859375 C 1.535156 -2.859375 1.285156 -2.753906 1.109375 -2.546875 C 0.941406 -2.347656 0.859375 -2.035156 0.859375 -1.609375 C 0.859375 -1.179688 0.941406 -0.863281 1.109375 -0.65625 C 1.285156 -0.457031 1.535156 -0.359375 1.859375 -0.359375 Z M 1.859375 -0.359375 "/></g></g><g transform="translate(78.756575, 24.986268)"><g><path d="M 2.140625 0.0625 C 1.898438 0.0625 1.691406 0.015625 1.515625 -0.078125 C 1.335938 -0.171875 1.203125 -0.296875 1.109375 -0.453125 L 1.046875 -0.4375 L 1.046875 0 L 0.5625 0 L 0.5625 -4.53125 L 1.046875 -4.53125 L 1.046875 -2.75 L 1.109375 -2.734375 C 1.347656 -3.109375 1.703125 -3.296875 2.171875 -3.296875 C 2.441406 -3.296875 2.675781 -3.234375 2.875 -3.109375 C 3.070312 -2.984375 3.222656 -2.796875 3.328125 -2.546875 C 3.441406 -2.296875 3.5 -1.984375 3.5 -1.609375 C 3.5 -1.242188 3.441406 -0.9375 3.328125 -0.6875 C 3.210938 -0.4375 3.050781 -0.25 2.84375 -0.125 C 2.644531 0 2.410156 0.0625 2.140625 0.0625 Z M 2.03125 -0.359375 C 2.675781 -0.359375 3 -0.773438 3 -1.609375 C 3 -2.046875 2.914062 -2.363281 2.75 -2.5625 C 2.582031 -2.757812 2.34375 -2.859375 2.03125 -2.859375 C 1.726562 -2.859375 1.488281 -2.753906 1.3125 -2.546875 C 1.132812 -2.347656 1.046875 -2.035156 1.046875 -1.609375 C 1.046875 -1.191406 1.132812 -0.878906 1.3125 -0.671875 C 1.488281 -0.460938 1.726562 -0.359375 2.03125 -0.359375 Z M 2.03125 -0.359375 "/></g></g><g transform="translate(82.612034, 24.986268)"><g/></g><g transform="translate(84.082734, 24.986268)"><g><path d="M 1.609375 0 L 1 0 L 0.203125 -3.234375 L 0.6875 -3.234375 L 1.296875 -0.5625 L 1.359375 -0.5625 L 2.109375 -3.234375 L 2.609375 -3.234375 L 3.390625 -0.5625 L 3.453125 -0.5625 L 4.046875 -3.234375 L 4.5 -3.234375 L 3.71875 0 L 3.109375 0 L 2.375 -2.515625 L 2.3125 -2.515625 Z M 1.609375 0 "/></g></g><g transform="translate(88.793659, 24.986268)"><g><path d="M 0.796875 -3.859375 C 0.703125 -3.859375 0.617188 -3.890625 0.546875 -3.953125 C 0.484375 -4.015625 0.453125 -4.09375 0.453125 -4.1875 C 0.453125 -4.289062 0.484375 -4.375 0.546875 -4.4375 C 0.617188 -4.5 0.703125 -4.53125 0.796875 -4.53125 C 0.898438 -4.53125 0.984375 -4.5 1.046875 -4.4375 C 1.109375 -4.375 1.140625 -4.289062 1.140625 -4.1875 C 1.140625 -4.09375 1.109375 -4.015625 1.046875 -3.953125 C 0.984375 -3.890625 0.898438 -3.859375 0.796875 -3.859375 Z M 1.046875 0 L 0.5625 0 L 0.5625 -3.234375 L 1.046875 -3.234375 Z M 1.046875 0 "/></g></g><g transform="translate(90.396195, 24.986268)"><g><path d="M 2.1875 -0.515625 L 2.34375 -0.171875 C 2.257812 -0.0976562 2.15625 -0.0390625 2.03125 0 C 1.914062 0.0390625 1.785156 0.0625 1.640625 0.0625 C 1.015625 0.0625 0.703125 -0.25 0.703125 -0.875 L 0.703125 -2.84375 L 0.140625 -2.84375 L 0.140625 -3.234375 L 0.703125 -3.234375 L 0.703125 -3.921875 L 1.1875 -4 L 1.1875 -3.234375 L 2.234375 -3.234375 L 2.234375 -2.84375 L 1.1875 -2.84375 L 1.1875 -0.921875 C 1.1875 -0.546875 1.347656 -0.359375 1.671875 -0.359375 C 1.847656 -0.359375 2 -0.410156 2.125 -0.515625 Z M 2.1875 -0.515625 "/></g></g><g transform="translate(92.857126, 24.986268)"><g><path d="M 0.5625 0 L 0.5625 -4.53125 L 1.046875 -4.53125 L 1.046875 -2.765625 L 1.109375 -2.765625 C 1.335938 -3.117188 1.664062 -3.296875 2.09375 -3.296875 C 2.488281 -3.296875 2.769531 -3.195312 2.9375 -3 C 3.113281 -2.800781 3.203125 -2.492188 3.203125 -2.078125 L 3.203125 0 L 2.734375 0 L 2.734375 -2.0625 C 2.734375 -2.257812 2.707031 -2.414062 2.65625 -2.53125 C 2.601562 -2.65625 2.523438 -2.742188 2.421875 -2.796875 C 2.316406 -2.847656 2.179688 -2.875 2.015625 -2.875 C 1.722656 -2.875 1.488281 -2.78125 1.3125 -2.59375 C 1.132812 -2.40625 1.046875 -2.09375 1.046875 -1.65625 L 1.046875 0 Z M 0.5625 0 "/></g></g><g transform="translate(96.57782, 24.986268)"><g/></g><g transform="translate(98.048519, 24.986268)"><g><path d="M 1.59375 0.0625 C 1.226562 0.0625 0.957031 -0.03125 0.78125 -0.21875 C 0.601562 -0.414062 0.515625 -0.703125 0.515625 -1.078125 L 0.515625 -3.234375 L 0.984375 -3.234375 L 0.984375 -1.09375 C 0.984375 -0.601562 1.21875 -0.359375 1.6875 -0.359375 C 1.976562 -0.359375 2.207031 -0.453125 2.375 -0.640625 C 2.539062 -0.828125 2.625 -1.140625 2.625 -1.578125 L 2.625 -3.234375 L 3.109375 -3.234375 L 3.109375 0 L 2.65625 0 L 2.65625 -0.5 L 2.59375 -0.515625 C 2.476562 -0.316406 2.34375 -0.171875 2.1875 -0.078125 C 2.039062 0.015625 1.84375 0.0625 1.59375 0.0625 Z M 1.59375 0.0625 "/></g></g><g transform="translate(101.719409, 24.986268)"><g><path d="M 1.46875 0.0625 C 1.269531 0.0625 1.082031 0.0351562 0.90625 -0.015625 C 0.738281 -0.0664062 0.59375 -0.140625 0.46875 -0.234375 C 0.351562 -0.328125 0.269531 -0.4375 0.21875 -0.5625 L 0.5 -0.84375 L 0.5625 -0.84375 C 0.664062 -0.6875 0.789062 -0.566406 0.9375 -0.484375 C 1.09375 -0.398438 1.269531 -0.359375 1.46875 -0.359375 C 1.707031 -0.359375 1.890625 -0.40625 2.015625 -0.5 C 2.140625 -0.59375 2.203125 -0.722656 2.203125 -0.890625 C 2.203125 -1.015625 2.164062 -1.117188 2.09375 -1.203125 C 2.019531 -1.285156 1.894531 -1.347656 1.71875 -1.390625 L 1.1875 -1.53125 C 0.894531 -1.601562 0.679688 -1.710938 0.546875 -1.859375 C 0.410156 -2.015625 0.34375 -2.203125 0.34375 -2.421875 C 0.34375 -2.597656 0.382812 -2.75 0.46875 -2.875 C 0.5625 -3.007812 0.691406 -3.113281 0.859375 -3.1875 C 1.035156 -3.257812 1.238281 -3.296875 1.46875 -3.296875 C 1.757812 -3.296875 1.988281 -3.253906 2.15625 -3.171875 C 2.332031 -3.085938 2.46875 -2.972656 2.5625 -2.828125 L 2.296875 -2.5625 L 2.234375 -2.5625 C 2.140625 -2.675781 2.03125 -2.757812 1.90625 -2.8125 C 1.78125 -2.863281 1.632812 -2.890625 1.46875 -2.890625 C 1.257812 -2.890625 1.097656 -2.851562 0.984375 -2.78125 C 0.867188 -2.707031 0.8125 -2.597656 0.8125 -2.453125 C 0.8125 -2.316406 0.847656 -2.207031 0.921875 -2.125 C 1.003906 -2.050781 1.144531 -1.988281 1.34375 -1.9375 L 1.890625 -1.8125 C 2.171875 -1.75 2.375 -1.640625 2.5 -1.484375 C 2.625 -1.328125 2.6875 -1.132812 2.6875 -0.90625 C 2.6875 -0.707031 2.640625 -0.535156 2.546875 -0.390625 C 2.453125 -0.253906 2.3125 -0.144531 2.125 -0.0625 C 1.945312 0.0195312 1.726562 0.0625 1.46875 0.0625 Z M 1.46875 0.0625 "/></g></g></g></svg>